<?xml version="1.0" encoding="UTF-8"?>
<svg xmlns="http://www.w3.org/2000/svg" id="AllHere_Master_Logo_White_Text_RGB_1_" data-name="AllHere_Master_Logo_White_Text_RGB (1)" width="222.386" height="54.885" viewBox="0 0 222.386 54.885">
  <circle id="Ellipse_1" data-name="Ellipse 1" cx="7.992" cy="7.992" r="7.992" transform="translate(0 38.901)" fill="#f70000"></circle>
  <circle id="Ellipse_2" data-name="Ellipse 2" cx="7.992" cy="7.992" r="7.992" transform="translate(34.401 38.901)" fill="#f58f0a"></circle>
  <circle id="Ellipse_3" data-name="Ellipse 3" cx="7.992" cy="7.992" r="7.992" transform="translate(68.802 38.901)" fill="#ffd400"></circle>
  <circle id="Ellipse_4" data-name="Ellipse 4" cx="7.992" cy="7.992" r="7.992" transform="translate(103.199 38.901)" fill="#398200"></circle>
  <circle id="Ellipse_5" data-name="Ellipse 5" cx="7.992" cy="7.992" r="7.992" transform="translate(137.6 38.901)" fill="#4075d6"></circle>
  <circle id="Ellipse_6" data-name="Ellipse 6" cx="7.992" cy="7.992" r="7.992" transform="translate(172.001 38.901)" fill="#1b498c"></circle>
  <circle id="Ellipse_7" data-name="Ellipse 7" cx="7.992" cy="7.992" r="7.992" transform="translate(206.402 38.901)" fill="#9e3694"></circle>
  <path id="Path_1" data-name="Path 1" d="M6.34,21.161,11.066,0h2.527l4.726,21.161H15.286L14.4,16.613H10.263l-.891,4.549Zm7.49-7.4L12.345,6.094h-.06L10.8,13.76h3.033Z" transform="translate(-4.337)" fill="#fff"></path>
  <path id="Path_2" data-name="Path 2" d="M119.91,21.161V0h3.033V18.129h6v3.033Z" transform="translate(-82.035)" fill="#fff"></path>
  <path id="Path_3" data-name="Path 3" d="M228.82,21.161V0h3.033V18.129h6v3.033Z" transform="translate(-156.544)" fill="#fff"></path>
  <path id="Path_4" data-name="Path 4" d="M336.5,21.161V0h3.033V9.066h3.743V0h3.033V21.161h-3.033v-9.42h-3.743v9.42Z" transform="translate(-230.211)" fill="#fff"></path>
  <path id="Path_5" data-name="Path 5" d="M446.63,21.161V0h9.034V2.852h-6v6.21h5.231v2.852h-5.231v6.21h6v3.033H446.63Z" transform="translate(-305.555)" fill="#fff"></path>
  <path id="Path_6" data-name="Path 6" d="M552.76,21.161V0h4.874q5.35,0,5.351,6.21a7.851,7.851,0,0,1-.578,3.181,4.486,4.486,0,0,1-2.034,2.11l3.269,9.66h-3.209l-2.824-9.034H555.8v9.034h-3.033Zm3.033-18.309v6.6h1.725a3.067,3.067,0,0,0,1.279-.224,1.727,1.727,0,0,0,.742-.638,2.931,2.931,0,0,0,.328-1.027,9.785,9.785,0,0,0,.088-1.412,9.815,9.815,0,0,0-.088-1.412,2.814,2.814,0,0,0-.357-1.055,2.406,2.406,0,0,0-2.139-.831H555.8Z" transform="translate(-378.162)" fill="#fff"></path>
  <path id="Path_7" data-name="Path 7" d="M664.45,21.161V0h9.034V2.852h-6v6.21h5.231v2.852h-5.231v6.21h6v3.033H664.45Z" transform="translate(-454.573)" fill="#fff"></path>
</svg>
